:SAMPLES-PER-SECOND 30
:FRAME-RANGE 1-4244
:FULLY-SPECIFIED
:DEGREES
531
root  0.878896 34.0778 -15.4853 175.335 -40.4276 -171.254
RightUpLeg  -6.67241 -10.2753 -9.12616
RightLeg  57.5051 -9.06928 -15.3807
RightFoot  -29.9457 1.12216 8.08555
RightToes  -1.33073e-015 0 -3.6325e-017
Spine  9.21184 2.61385 6.3814
Spine1  -2.96376 4.44804 -11.5647
HEad  -9.24227 2.5373 8.25376
LeftShoulder1  1.88373 -6.40124 -12.5958
LeftArm  4.58026 -34.0988 -61.1154
LeftForeArm  95.0922 -80.4019 -65.957
LeftHand  -0.0584943 4.93811 10.9132
RightShoulder  0.430909 7.02958 -4.80873
RightArm  -40.4735 79.6265 54.913
RightForeArm  55.7403 19.798 -0.640372
RightHand  -0.656927 -1.07822 -17.6008
LeftUpLeg  -46.0662 12.0795 14.5373
LeftLeg  49.9911 -9.7768 -11.8309
LeftFoot  -2.17835 0.442827 -5.36161
LeftToes  2.72522e-012 8.43823e-011 6.24977e-012
532
root  0.257948 35.1724 -15.8811 174.869 -41.8901 -168.914
RightUpLeg  -7.84124 -10.7335 -5.61419
RightLeg  50.3104 -10.2896 -13.338
RightFoot  -28.7835 1.18192 8.96768
RightToes  -1.33073e-015 0 -3.6325e-017
Spine  8.22198 2.05739 5.40384
Spine1  -2.43787 3.59862 -9.47872
HEad  -7.27246 1.9468 9.21377
LeftShoulder1  1.85156 -6.01453 -13.1038
LeftArm  6.45121 -31.5461 -62.6465
LeftForeArm  101.439 -80.7941 -72.4477
LeftHand  -0.0555455 4.96086 10.5834
RightShoulder  1.09405 7.15289 2.39523
RightArm  -31.7777 71.9411 57.0118
RightForeArm  48.4713 40.3066 6.46818
RightHand  -0.478177 -1.48044 -14.0882
LeftUpLeg  -43.4448 10.0693 15.7365
LeftLeg  44.8536 -10.2375 -10.3443
LeftFoot  -1.30647 0.498861 -5.59123
LeftToes  2.72522e-012 8.43823e-011 6.24977e-012
533
root  -0.272029 36.1489 -16.2639 175.18 -42.6385 -167.568
RightUpLeg  -9.37571 -9.69235 -3.07574
RightLeg  42.8391 -10.9793 -10.9946
RightFoot  -28.4523 1.25799 9.63124
RightToes  -1.33073e-015 0 -3.6325e-017
Spine  7.35235 1.77473 4.14639
Spine1  -1.85241 3.07515 -7.9602
HEad  -5.93429 1.36954 9.45809
LeftShoulder1  1.72054 -5.29247 -13.2625
LeftArm  7.99413 -29.3233 -63.5915
LeftForeArm  111.41 -81.103 -83.9954
LeftHand  -0.0611277 4.89012 10.4022
RightShoulder  1.59672 7.03993 8.02404
RightArm  -27.382 61.7018 56.3132
RightForeArm  56.7249 65.0996 18.346
RightHand  -0.112408 -4.16418 -9.14986
LeftUpLeg  -40.7757 8.22593 16.6181
LeftLeg  39.3929 -10.0874 -8.40831
LeftFoot  -0.224273 0.594544 -6.09317
LeftToes  2.72522e-012 8.43823e-011 6.24977e-012
534
root  -0.738942 36.9087 -16.6747 175.532 -43.3734 -166.527
RightUpLeg  -10.4038 -9.20366 -1.49835
RightLeg  35.6252 -8.67319 -6.87576
RightFoot  -28.3392 1.51001 11.3658
RightToes  -1.33073e-015 0 -3.6325e-017
Spine  6.12643 1.52411 2.56183
Spine1  -0.654851 2.58266 -6.40216
HEad  -5.73766 1.09721 9.32665
LeftShoulder1  1.58201 -4.56181 -13.369
LeftArm  9.10183 -27.4305 -63.9621
LeftForeArm  130.152 -80.9978 -101.958
LeftHand  -0.034249 5.19656 9.50168
RightShoulder  1.94597 6.34857 13.2859
RightArm  -25.2606 50.2265 54.5004
RightForeArm  125.117 81.3799 92.1215
RightHand  0.0111183 -6.35411 -4.87294
LeftUpLeg  -38.4869 6.47948 17.436
LeftLeg  34.7161 -9.73591 -6.83535
LeftFoot  0.539468 0.691112 -6.66987
LeftToes  2.72522e-012 8.43823e-011 6.24977e-012
535
root  -1.2004 37.4898 -17.1127 175.577 -44.0109 -166.326
RightUpLeg  -9.92557 -8.42794 -1.27947
RightLeg  29.7229 -4.65876 -3.1067
RightFoot  -26.5831 1.86418 15.2091
RightToes  -1.33073e-015 0 -3.6325e-017
Spine  5.96657 0.813791 1.04414
Spine1  -0.917275 1.74034 -5.90308
HEad  -4.55449 1.19052 9.85496
LeftShoulder1  1.36615 -3.5854 -13.0544
LeftArm  9.9131 -25.1027 -63.504
LeftForeArm  142.893 -80.3513 -114.49
LeftHand  -0.0366336 5.17102 9.96335
RightShoulder  2.19733 5.30784 19.1317
RightArm  -22.8426 38.6622 53.3858
RightForeArm  178.398 70.402 153.92
RightHand  0.0102915 -7.58465 -2.56139
LeftUpLeg  -35.8072 4.65541 17.7692
LeftLeg  31.0527 -9.06956 -5.51184
LeftFoot  0.882123 0.763398 -7.1745
LeftToes  2.72522e-012 8.43823e-011 6.24977e-012
536
root  -1.61359 37.8893 -17.5664 175.503 -44.1205 -166.628
RightUpLeg  -9.15257 -6.30553 -1.47216
RightLeg  26.9761 -1.63683 -1.13295
RightFoot  -26.7557 1.93792 15.5837
RightToes  -1.33073e-015 0 -3.6325e-017
Spine  4.58116 0.372617 -1.2297
Spine1  0.217929 1.0153 -4.25054
HEad  -3.30005 1.09427 9.64478
LeftShoulder1  1.24648 -2.99618 -13.0026
LeftArm  9.92679 -23.4384 -62.6552
LeftForeArm  144.717 -80.1049 -117.101
LeftHand  -0.0422251 5.09775 9.68532
RightShoulder  2.03108 3.61317 23.2208
RightArm  -20.1744 29.2301 52.2
RightForeArm  -177.313 61.7121 162.818
RightHand  0.0127916 -7.65542 -2.62349
LeftUpLeg  -33.1889 3.41788 17.8469
LeftLeg  28.7201 -8.3685 -4.60141
LeftFoot  0.760907 0.776762 -7.36556
LeftToes  2.72522e-012 8.43823e-011 6.24977e-012
